<mxfile host="app.diagrams.net" modified="2021-03-30T06:38:07.991Z" agent="5.0 (Windows NT 10.0; Win64; x64) AppleWebKit/537.36 (KHTML, like Gecko) Chrome/89.0.4389.90 Safari/537.36" etag="TtX_0qKxlPVx9DVTZZIx" version="14.5.3" type="github">
  <diagram id="prtHgNgQTEPvFCAcTncT" name="Page-1">
    <mxGraphModel dx="981" dy="526" grid="1" gridSize="10" guides="1" tooltips="1" connect="1" arrows="1" fold="1" page="1" pageScale="1" pageWidth="827" pageHeight="1169" math="0" shadow="0">
      <root>
        <mxCell id="0" />
        <mxCell id="1" parent="0" />
        <mxCell id="311pXLeKOptnYPJi6K1f-5" value="" style="edgeStyle=orthogonalEdgeStyle;rounded=0;orthogonalLoop=1;jettySize=auto;html=1;" edge="1" parent="1" source="311pXLeKOptnYPJi6K1f-1" target="311pXLeKOptnYPJi6K1f-4">
          <mxGeometry relative="1" as="geometry" />
        </mxCell>
        <mxCell id="311pXLeKOptnYPJi6K1f-7" style="edgeStyle=orthogonalEdgeStyle;rounded=0;orthogonalLoop=1;jettySize=auto;html=1;exitX=0.5;exitY=1;exitDx=0;exitDy=0;entryX=0;entryY=0.5;entryDx=0;entryDy=0;" edge="1" parent="1" source="311pXLeKOptnYPJi6K1f-1" target="311pXLeKOptnYPJi6K1f-3">
          <mxGeometry relative="1" as="geometry" />
        </mxCell>
        <mxCell id="311pXLeKOptnYPJi6K1f-1" value="普通成员权限" style="rounded=0;whiteSpace=wrap;html=1;" vertex="1" parent="1">
          <mxGeometry x="294" y="240" width="116" height="40" as="geometry" />
        </mxCell>
        <mxCell id="311pXLeKOptnYPJi6K1f-3" value="历&lt;br&gt;史&lt;br&gt;数&lt;br&gt;据" style="rounded=0;whiteSpace=wrap;html=1;direction=south;" vertex="1" parent="1">
          <mxGeometry x="280" y="320" width="40" height="100" as="geometry" />
        </mxCell>
        <mxCell id="311pXLeKOptnYPJi6K1f-4" value="报&lt;br&gt;表&lt;br&gt;管&lt;br&gt;理" style="rounded=0;whiteSpace=wrap;html=1;direction=south;" vertex="1" parent="1">
          <mxGeometry x="380" y="320" width="40" height="100" as="geometry" />
        </mxCell>
      </root>
    </mxGraphModel>
  </diagram>
</mxfile>
